<svg width="1280" height="580" viewBox="0 0 1280 580" fill="none" xmlns="http://www.w3.org/2000/svg" font-family="'SF Pro Display','Helvetica Neue',Arial,sans-serif">
  <defs>
    <linearGradient id="bg" x1="0" y1="0" x2="1280" y2="580" gradientUnits="userSpaceOnUse">
      <stop offset="0" stop-color="#0d1117"/>
      <stop offset="0.55" stop-color="#131a26"/>
      <stop offset="1" stop-color="#1b1430"/>
    </linearGradient>
  </defs>

  <rect width="1280" height="580" rx="16" fill="url(#bg)"/>

  <!-- subtle grid dots -->
  <g fill="#ffffff" opacity="0.035">
    <circle cx="60" cy="40" r="2"/><circle cx="120" cy="40" r="2"/>
    <circle cx="1220" cy="540" r="2"/><circle cx="1160" cy="540" r="2"/>
  </g>

  <!-- ===== header ===== -->
  <text x="40" y="62" font-size="34" font-weight="700" fill="#f0f6fc" letter-spacing="-0.5">privatize-fork · 核心特性</text>
  <text x="42" y="94" font-size="17" font-weight="500" fill="#8b95a5">把开源 fork 一次性私有化：安全隔离 · 可维护可追溯 · 跨 Claude Code / Codex · 一套有顺序的方法论</text>

  <!-- ============ 4 category columns ============ -->
  <!-- card geometry: width 282, height 396, y=150; x = 40 / 346 / 652 / 958 -->

  <!-- ===== Col 1 · 安全·隔离 (blue) ===== -->
  <g transform="translate(40,150)">
    <rect width="282" height="396" rx="14" fill="#10161f" stroke="#22303f" stroke-width="1.5"/>
    <rect width="282" height="396" rx="14" fill="none" stroke="#58a6ff" stroke-opacity="0.18" stroke-width="1.5"/>
    <!-- category header -->
    <circle cx="32" cy="44" r="17" fill="#13243a"/>
    <g transform="translate(32,44)">
      <rect x="-8" y="-1" width="16" height="12" rx="2.2" fill="#58a6ff"/>
      <path d="M-5 -1 v-4 a5 5 0 0 1 10 0 v4" stroke="#58a6ff" stroke-width="2.2" fill="none"/>
    </g>
    <text x="60" y="50" font-size="20" font-weight="700" fill="#58a6ff">安全 · 隔离</text>
    <line x1="20" y1="74" x2="262" y2="74" stroke="#ffffff" stroke-opacity="0.07" stroke-width="1.3"/>
    <!-- features -->
    <g font-weight="600">
      <circle cx="26" cy="108" r="3.5" fill="#58a6ff"/>
      <text x="42" y="114" font-size="17" fill="#e8eef6">upstream 只读 + 禁推</text>
      <text x="42" y="138" font-size="13.5" fill="#7d8898">git 层 push=DISABLED，杜绝误推</text>

      <circle cx="26" cy="190" r="3.5" fill="#58a6ff"/>
      <text x="42" y="196" font-size="17" fill="#e8eef6">private/ 彻底隔离</text>
      <text x="42" y="220" font-size="13.5" fill="#7d8898">定制不混上游目录，升级不冲突</text>

      <circle cx="26" cy="272" r="3.5" fill="#58a6ff"/>
      <text x="42" y="278" font-size="17" fill="#e8eef6">skip-worktree</text>
      <text x="42" y="302" font-size="13.5" fill="#7d8898">本地状态文件忽略本机变化</text>
    </g>
  </g>

  <!-- ===== Col 2 · 可维护·可追溯 (purple) ===== -->
  <g transform="translate(346,150)">
    <rect width="282" height="396" rx="14" fill="#13101d" stroke="#332746" stroke-width="1.5"/>
    <rect width="282" height="396" rx="14" fill="none" stroke="#bc6bff" stroke-opacity="0.18" stroke-width="1.5"/>
    <circle cx="32" cy="44" r="17" fill="#241733"/>
    <g transform="translate(32,44)" stroke="#bc6bff" stroke-width="2.1" stroke-linecap="round">
      <rect x="-8" y="-9" width="16" height="18" rx="2.4" fill="none"/>
      <line x1="-4" y1="-4" x2="4" y2="-4"/><line x1="-4" y1="0" x2="4" y2="0"/><line x1="-4" y1="4" x2="1" y2="4"/>
    </g>
    <text x="60" y="50" font-size="20" font-weight="700" fill="#bc6bff">可维护 · 追溯</text>
    <line x1="20" y1="74" x2="262" y2="74" stroke="#ffffff" stroke-opacity="0.07" stroke-width="1.3"/>
    <g font-weight="600">
      <circle cx="26" cy="108" r="3.5" fill="#bc6bff"/>
      <text x="42" y="114" font-size="17" fill="#f0e9f8">维护规范自动生成</text>
      <text x="42" y="138" font-size="13.5" fill="#8b8198">升级流程 · tag 约定 · 验证命令</text>

      <circle cx="26" cy="190" r="3.5" fill="#bc6bff"/>
      <text x="42" y="196" font-size="17" fill="#f0e9f8">改动台账登记</text>
      <text x="42" y="220" font-size="13.5" fill="#8b8198">每处定制记「为什么改」，可审计</text>

      <circle cx="26" cy="272" r="3.5" fill="#bc6bff"/>
      <text x="42" y="278" font-size="17" fill="#f0e9f8">幂等可重入</text>
      <text x="42" y="302" font-size="13.5" fill="#8b8198">重跑只补缺失，绝不覆盖已有</text>
    </g>
  </g>

  <!-- ===== Col 3 · 跨 CC / Codex (green) ===== -->
  <g transform="translate(652,150)">
    <rect width="282" height="396" rx="14" fill="#0f1714" stroke="#22392e" stroke-width="1.5"/>
    <rect width="282" height="396" rx="14" fill="none" stroke="#7ee787" stroke-opacity="0.18" stroke-width="1.5"/>
    <circle cx="32" cy="44" r="17" fill="#13261b"/>
    <g transform="translate(32,44)" stroke="#7ee787" stroke-width="2.2" fill="none" stroke-linecap="round">
      <circle cx="-7" cy="0" r="4"/><circle cx="7" cy="0" r="4"/><line x1="-3" y1="0" x2="3" y2="0"/>
    </g>
    <text x="60" y="50" font-size="20" font-weight="700" fill="#7ee787">跨 CC / Codex</text>
    <line x1="20" y1="74" x2="262" y2="74" stroke="#ffffff" stroke-opacity="0.07" stroke-width="1.3"/>
    <g font-weight="600">
      <circle cx="26" cy="108" r="3.5" fill="#7ee787"/>
      <text x="42" y="114" font-size="17" fill="#e6f5ea">一键装两边</text>
      <text x="42" y="138" font-size="13.5" fill="#7f9588">一个 install.sh 软链两个目录</text>

      <circle cx="26" cy="190" r="3.5" fill="#7ee787"/>
      <text x="42" y="196" font-size="17" fill="#e6f5ea">指针段跨平台</text>
      <text x="42" y="220" font-size="13.5" fill="#7f9588">写 CLAUDE.md / AGENTS.md</text>

      <circle cx="26" cy="272" r="3.5" fill="#7ee787"/>
      <text x="42" y="278" font-size="17" fill="#e6f5ea">文档翻译 · 增量</text>
      <text x="42" y="302" font-size="13.5" fill="#7f9588">内联翻译，只重译变动过的</text>
    </g>
  </g>

  <!-- ===== Col 4 · 方法论内核 (amber) ===== -->
  <g transform="translate(958,150)">
    <rect width="282" height="396" rx="14" fill="#181307" stroke="#3d3115" stroke-width="1.5"/>
    <rect width="282" height="396" rx="14" fill="none" stroke="#e3b341" stroke-opacity="0.18" stroke-width="1.5"/>
    <circle cx="32" cy="44" r="17" fill="#2a2110"/>
    <g transform="translate(32,44)" stroke="#e3b341" stroke-width="2" fill="none" stroke-linecap="round">
      <circle cx="0" cy="0" r="9"/><circle cx="0" cy="0" r="1.6" fill="#e3b341" stroke="none"/>
      <line x1="0" y1="-9" x2="0" y2="-12.5"/><line x1="0" y1="9" x2="0" y2="12.5"/>
      <line x1="-9" y1="0" x2="-12.5" y2="0"/><line x1="9" y1="0" x2="12.5" y2="0"/>
    </g>
    <text x="60" y="50" font-size="20" font-weight="700" fill="#e3b341">方法论内核</text>
    <line x1="20" y1="74" x2="262" y2="74" stroke="#ffffff" stroke-opacity="0.07" stroke-width="1.3"/>
    <g font-weight="600">
      <circle cx="26" cy="108" r="3.5" fill="#e3b341"/>
      <text x="42" y="114" font-size="17" fill="#f5ecd6">先只读勘察暗礁</text>
      <text x="42" y="138" font-size="13.5" fill="#988b6f">.gitignore · 版本号 · 状态文件</text>

      <circle cx="26" cy="190" r="3.5" fill="#e3b341"/>
      <text x="42" y="196" font-size="17" fill="#f5ecd6">私有隔离 → 本地定型</text>
      <text x="42" y="220" font-size="13.5" fill="#988b6f">设计干净隔离，本地先定型</text>

      <circle cx="26" cy="272" r="3.5" fill="#e3b341"/>
      <text x="42" y="278" font-size="17" fill="#f5ecd6">发布交给你</text>
      <text x="42" y="302" font-size="13.5" fill="#988b6f">不自动 push/tag，确认再发</text>
    </g>
  </g>

  <!-- ===== footer flow strip ===== -->
  <g transform="translate(0,512)" font-size="14.5" font-weight="600">
    <text x="40" y="0" fill="#6b7686">流程：</text>
    <text x="92" y="0" fill="#58a6ff">勘察</text>
    <text x="138" y="0" fill="#4a5566">→</text>
    <text x="160" y="0" fill="#9aa7b8">引导问答</text>
    <text x="232" y="0" fill="#4a5566">→</text>
    <text x="254" y="0" fill="#9aa7b8">配远端</text>
    <text x="314" y="0" fill="#4a5566">→</text>
    <text x="336" y="0" fill="#bc6bff">private/</text>
    <text x="406" y="0" fill="#4a5566">→</text>
    <text x="428" y="0" fill="#7ee787">翻译</text>
    <text x="474" y="0" fill="#4a5566">→</text>
    <text x="496" y="0" fill="#9aa7b8">指针段</text>
    <text x="556" y="0" fill="#4a5566">→</text>
    <text x="578" y="0" fill="#9aa7b8">skip-worktree</text>
    <text x="684" y="0" fill="#4a5566">→</text>
    <text x="706" y="0" fill="#e3b341">本地就绪，发布交给你</text>
  </g>
</svg>
